<?xml version="1.0" encoding="UTF-8"?>
<svg width="78px" height="92px" viewBox="0 0 78 92" version="1.1" xmlns="http://www.w3.org/2000/svg" xmlns:xlink="http://www.w3.org/1999/xlink">
    <!-- Generator: Sketch 63.1 (92452) - https://sketch.com -->
    <title>安全</title>
    <desc>Created with Sketch.</desc>
    <g id="页面-1" stroke="none" stroke-width="1" fill="none" fill-rule="evenodd">
        <g id="9关于我们" transform="translate(-921.000000, -905.000000)">
            <g id="核心实力" transform="translate(365.000000, 704.000000)">
                <g id="编组-9" transform="translate(184.000000, 60.000000)">
                    <g id="内容" transform="translate(0.000000, 138.000000)">
                        <g id="2" transform="translate(352.000000, 3.000000)">
                            <g id="安全" transform="translate(20.000000, 0.000000)">
                                <path d="M59.308364,6 L61.6470588,6 C68.4693999,6 74,11.5306001 74,18.3529412 L74,76 C74,82.822341 68.4693999,88.3529412 61.6470588,88.3529412 L16.3529412,88.3529412 C9.53060015,88.3529412 4,82.822341 4,76 L4,18.3529412 C4,11.5306001 9.53060015,6 16.3529412,6 L20.0121783,6 L20.0121783,6" id="路径" stroke="#1138FF" stroke-width="7" stroke-linecap="round"></path>
                                <rect id="矩形" fill="#889BFF" x="19" y="29" width="41" height="7" rx="3.5"></rect>
                                <rect id="矩形备份-4" fill="#889BFF" x="19" y="44" width="41" height="7" rx="3.5"></rect>
                                <rect id="矩形备份-5" fill="#889BFF" x="19" y="59" width="41" height="7" rx="3.5"></rect>
                                <rect id="矩形" fill="#1138FF" x="28" y="0" width="22" height="10" rx="5"></rect>
                            </g>
                        </g>
                    </g>
                </g>
            </g>
        </g>
    </g>
</svg>