<?xml version="1.0" standalone="no"?><!DOCTYPE svg PUBLIC "-//W3C//DTD SVG 1.1//EN" "http://www.w3.org/Graphics/SVG/1.1/DTD/svg11.dtd"><svg t="1585908701984" class="icon" viewBox="0 0 1024 1024" version="1.1" xmlns="http://www.w3.org/2000/svg" p-id="808" xmlns:xlink="http://www.w3.org/1999/xlink" width="64" height="64"><defs><style type="text/css"></style></defs><path d="M511.855549 703.68757c-211.875329 0-384.528727-66.138941-384.528727-171.884341v107.668044c0 106.129929 171.884341 192.264363 384.528727 192.264364s384.528727-85.749906 384.528727-192.264364v-107.668044c0 105.7454-171.499812 171.884341-384.528727 171.884341z m0 192.264364c-211.875329 0-384.528727-66.138941-384.528727-171.884341v107.668044c0 106.129929 171.884341 192.264363 384.528727 192.264363s384.528727-86.134435 384.528727-192.264363v-108.052573c0 105.7454-171.499812 171.884341-384.528727 171.884341z m0-384.528727c-211.875329 0-384.528727-66.138941-384.528727-171.884341v107.668044c0 106.129929 171.884341 192.264363 384.528727 192.264363s384.528727-85.749906 384.528727-192.264363V339.923395c0 105.7454-171.499812 171.884341-384.528727 171.884341zM511.855549 0C299.211163 0 127.326822 85.749906 127.326822 192.264363v63.44724c0 106.129929 171.884341 192.264363 384.528727 192.264364s384.528727-85.749906 384.528727-192.264364V192.264363c0-106.129929-171.499812-192.264363-384.528727-192.264363z" fill="#1296db" p-id="809"></path></svg>