<?xml version="1.0" encoding="UTF-8"?>
<svg width="40px" height="40px" viewBox="0 0 40 40" version="1.1" xmlns="http://www.w3.org/2000/svg" xmlns:xlink="http://www.w3.org/1999/xlink">
    <!-- Generator: Sketch 63.1 (92452) - https://sketch.com -->
    <title>椭圆形</title>
    <desc>Created with Sketch.</desc>
    <g id="页面-1" stroke="none" stroke-width="1" fill="none" fill-rule="evenodd">
        <g id="1PC首页" transform="translate(-738.000000, -4261.000000)">
            <g id="编组-23" transform="translate(0.000000, 3227.000000)">
                <g id="基本问题答疑" transform="translate(203.000000, 831.000000)">
                    <g id="1" transform="translate(0.000000, 147.000000)">
                        <g id="箭头备份-2" transform="translate(555.000000, 76.000000) scale(-1, 1) translate(-555.000000, -76.000000) translate(535.000000, 56.000000)">
                            <circle id="椭圆形" fill="#FFFFFF" cx="20" cy="20" r="20"></circle>
                            <g id="箭头" transform="translate(20.000000, 20.000000) scale(-1, 1) translate(-20.000000, -20.000000) translate(10.000000, 10.000000)" fill="#1138FF" fill-rule="nonzero">
                                <rect id="矩形" opacity="0" transform="translate(10.000000, 10.000000) scale(-1, 1) translate(-10.000000, -10.000000) " x="0" y="0" width="20" height="20"></rect>
                                <path d="M8.62625129,4.29295502 L3.62620899,9.29302622 C3.23570812,9.68352935 3.23570812,10.3165483 3.62620899,10.7070515 L8.62625129,15.7071227 C9.01675216,16.0976258 9.64976748,16.0976258 10.0402684,15.7071227 C10.4307692,15.3166195 10.4307692,14.6836006 10.0402684,14.2930974 L6.74722556,11.0000356 L16.3333132,11.0000356 C16.8858205,11.0000356 17.3333333,10.5525202 17.3333333,10 C17.3333333,9.44749924 16.8858205,8.99998382 16.3333132,8.99998382 L6.74722556,8.99998382 L10.0402684,5.706922 C10.2352858,5.51192287 10.3332702,5.25591127 10.3332702,4.99989967 C10.3332702,4.74388807 10.2357712,4.48789589 10.0402684,4.29287735 C9.64976748,3.90237422 9.01675216,3.90237422 8.62625129,4.29287735 L8.62625129,4.29295502 Z" id="路径" transform="translate(10.333333, 10.000000) scale(-1, 1) translate(-10.333333, -10.000000) "></path>
                            </g>
                        </g>
                    </g>
                </g>
            </g>
        </g>
    </g>
</svg>