<?xml version="1.0" encoding="UTF-8"?>
<svg width="62px" height="62px" viewBox="0 0 62 62" version="1.1" xmlns="http://www.w3.org/2000/svg" xmlns:xlink="http://www.w3.org/1999/xlink">
    <!-- Generator: Sketch 63.1 (92452) - https://sketch.com -->
    <title>椭圆形</title>
    <desc>Created with Sketch.</desc>
    <g id="页面-1" stroke="none" stroke-width="1" fill="none" fill-rule="evenodd">
        <g id="1PC首页" transform="translate(-1452.000000, -2061.000000)">
            <g id="英雄榜" transform="translate(218.000000, 1462.000000)">
                <g id="矩形备份-2">
                    <g id="编组-14" transform="translate(1235.000000, 600.000000)">
                        <g id="箭头备份-2" transform="translate(30.000000, 30.000000) scale(-1, 1) translate(-30.000000, -30.000000) ">
                            <circle id="椭圆形" stroke="#CCCCCC" fill="#FFFFFF" cx="30" cy="30" r="30"></circle>
                            <g id="箭头" transform="translate(30.000000, 30.000000) scale(-1, 1) translate(-30.000000, -30.000000) translate(15.000000, 15.000000)" fill-rule="nonzero">
                                <rect id="矩形" fill="#000000" opacity="0" x="0" y="0" width="30" height="30"></rect>
                                <path d="M12.9393769,6.43943253 L5.43931348,13.9395393 C4.85356217,14.525294 4.85356217,15.4748225 5.43931348,16.0605772 L12.9393769,23.560684 C13.5251282,24.1464387 14.4746512,24.1464387 15.0604025,23.560684 C15.6461538,22.9749293 15.6461538,22.0254008 15.0604025,21.4396461 L10.1208383,16.5000534 L24.4999698,16.5000534 C25.3287307,16.5000534 26,15.8287803 26,15.0000146 C26,14.1712489 25.3287307,13.4999757 24.4999698,13.4999757 L10.1208383,13.4999757 L15.0604025,8.56038299 C15.3529287,8.26788431 15.4999053,7.88386691 15.4999053,7.49984951 C15.4999053,7.11583211 15.3536568,6.73184384 15.0604025,6.43931602 C14.4746512,5.85356133 13.5251282,5.85356133 12.9393769,6.43931602 L12.9393769,6.43943253 Z" id="路径" fill="#333333"></path>
                            </g>
                        </g>
                    </g>
                </g>
            </g>
        </g>
    </g>
</svg>