<?xml version="1.0" standalone="no"?><!DOCTYPE svg PUBLIC "-//W3C//DTD SVG 1.1//EN" "http://www.w3.org/Graphics/SVG/1.1/DTD/svg11.dtd"><svg t="1585909014952" class="icon" viewBox="0 0 1024 1024" version="1.1" xmlns="http://www.w3.org/2000/svg" p-id="1020" width="32" height="32" xmlns:xlink="http://www.w3.org/1999/xlink"><defs><style type="text/css"></style></defs><path d="M923.6 857.4c0.1-2.1 0.6-4 0.6-6.1 0-30.8-13.1-58.6-33.8-78.4-35.8-51.9-110-115.3-263.6-157.1 0-1.2 0.4-2.3 0.4-3.5V501.2c57.3-43 95-115.5 95-197.7 0-131.9-96.9-238.8-216.3-238.8-119.5 0-216.3 106.9-216.3 238.8 0 86 41.3 161.2 103.1 203.2v105.5c0 1.4 0.4 2.7 0.4 4.1-57.8 20.7-183.7 72.3-251.3 150-22.4 17.8-37.9 43.8-41.1 73.6-1.4 5.5-1.2 10.4-0.2 15.2 2.1 58.1 49.9 105.1 108.5 105.1h606.5c56.6 0 103-44 107.9-99.3 0.1 0 0.5-0.1 0.5-0.1s-0.1-1.2-0.3-3.4z" fill="#1296db" p-id="1021"></path><path d="M568.9 692.6l-57-77-57 77H508L454.9 910h114l-53.1-217.4z" fill="#1296db" p-id="1022"></path></svg>