<?xml version="1.0" encoding="UTF-8"?>
<svg width="85px" height="100px" viewBox="0 0 85 100" version="1.1" xmlns="http://www.w3.org/2000/svg" xmlns:xlink="http://www.w3.org/1999/xlink">
    <!-- Generator: Sketch 63.1 (92452) - https://sketch.com -->
    <title>形状</title>
    <desc>Created with Sketch.</desc>
    <g id="页面-1" stroke="none" stroke-width="1" fill="none" fill-rule="evenodd">
        <g id="1PC首页" transform="translate(-777.000000, -1164.000000)" fill="#1138FF" fill-rule="nonzero">
            <g id="核心实力" transform="translate(0.000000, 966.000000)">
                <g id="编组-9" transform="translate(430.000000, 60.000000)">
                    <g id="内容" transform="translate(0.000000, 138.000000)">
                        <g id="2" transform="translate(280.000000, 0.000000)">
                            <g id="安全" transform="translate(67.000000, 0.000000)">
                                <g>
                                    <path d="M42.5000575,100 C40.9361401,100 39.3702667,99.5295911 38.0346148,98.5876281 L18.2654926,84.6419003 C6.43319675,75.3978561 0,62.3291483 0,47.731583 L0,21.2589138 C0,19.7729151 0.860323487,18.4199865 2.20913546,17.7834775 L38.1855645,0.80168252 C38.3202772,0.737454731 38.4588778,0.681642855 38.6005612,0.634571082 C41.1077994,-0.210607134 43.8752878,-0.212439758 46.3863228,0.634571082 C46.5278382,0.681531845 46.6673976,0.737884626 46.8013194,0.80168252 L82.7908645,17.7834775 C84.1398317,18.4198119 85,19.7728501 85,21.2589138 L85,47.7316975 C85,62.3310954 78.5669183,75.3988869 66.8872979,84.5293091 L46.9673411,98.5867117 C45.6316891,99.5286748 44.0658158,100 42.5000575,100 Z M9,24.0737348 L9,48.2213121 C9,60.4620995 14.3419112,71.4304055 24.0394713,79.1065975 L43.5,93 L63.1121209,78.9924653 C72.6599153,71.4312109 78,60.4630198 78,48.2213121 L78,24.0737348 L44.7166183,8.1740458 C43.9211019,7.94198473 43.0620037,7.94198473 42.2702543,8.1740458 L9,24.0737348 Z" id="形状"></path>
                                    <path d="M38.862071,65.2018368 C38.0138168,65.2349541 37.1920362,64.9003723 36.6041079,64.2825244 L25.8688802,53.2108051 C24.7103733,52.0404103 24.7103733,50.1443687 25.8688802,48.9739739 C26.4206463,48.4026101 27.1777561,48.0803625 27.9683896,48.0803625 C28.7590232,48.0803625 29.516133,48.4026101 30.0678991,48.9739739 L38.8224576,57.8073672 L59.5006454,36.4233607 C60.1308907,35.3930591 61.3135087,34.8464419 62.4983746,35.0377819 C63.6832405,35.2291219 64.6377123,36.1208504 64.9177934,37.2981575 C65.1978744,38.4754646 64.7485722,39.7071922 63.7788911,40.4203712 L41.0011938,64.2425543 C40.4392859,64.8021794 39.6905818,65.1300145 38.9016844,65.1618667 L38.862071,65.2018368 Z" id="路径" opacity="0.5"></path>
                                </g>
                            </g>
                        </g>
                    </g>
                </g>
            </g>
        </g>
    </g>
</svg>