<?xml version="1.0" encoding="UTF-8"?>
<svg width="93px" height="100px" viewBox="0 0 93 100" version="1.1" xmlns="http://www.w3.org/2000/svg" xmlns:xlink="http://www.w3.org/1999/xlink">
    <!-- Generator: Sketch 63.1 (92452) - https://sketch.com -->
    <title>形状</title>
    <desc>Created with Sketch.</desc>
    <g id="页面-1" stroke="none" stroke-width="1" fill="none" fill-rule="evenodd">
        <g id="1PC首页" transform="translate(-1323.000000, -1164.000000)">
            <g id="核心实力" transform="translate(0.000000, 966.000000)">
                <g id="编组-9" transform="translate(430.000000, 60.000000)">
                    <g id="内容" transform="translate(0.000000, 138.000000)">
                        <g id="4" transform="translate(840.000000, 0.000000)">
                            <g id="雨伞" transform="translate(53.000000, 0.000000)">
                                <g>
                                    <path d="M50.9819277,7.44055556 L50.9819277,4.44444444 C50.9819277,1.98984556 48.9753003,0 46.5,0 C44.0246997,0 42.0180723,1.98984556 42.0180723,4.44444444 L42.0180723,7.44055556 C18.4733855,9.68444444 0,29.4072222 0,53.3333333 C0,55.7879322 2.00662739,57.7777778 4.48192771,57.7777778 L42.0180723,57.7777778 L42.0180723,81.1111111 C42.0180723,81.1633333 42.0242349,81.2133333 42.0259157,81.2644444 C42.0242349,81.3161111 42.0180723,81.3661111 42.0180723,81.4177778 C42.0180723,86.7627778 37.7456747,91.1111111 32.4939759,91.1111111 C27.2422771,91.1111111 22.9698795,86.7627778 22.9698795,81.4183333 C22.9698795,78.9637344 20.9632521,76.9738889 18.4879518,76.9738889 C16.0126515,76.9738889 14.0060241,78.9637344 14.0060241,81.4183333 C14.0060241,91.6644444 22.2998313,100 32.4939759,100 C42.6881205,100 50.9819277,91.6644444 50.9819277,81.4183333 C50.9819277,81.3661111 50.9757651,81.3161111 50.9740843,81.265 C50.9757651,81.2133333 50.9819277,81.1633333 50.9819277,81.1116667 L50.9819277,57.7783333 L88.5180723,57.7783333 C89.7067534,57.7783333 90.8467493,57.3100807 91.6872738,56.4765857 C92.5277983,55.6430907 93,54.5126288 93,53.3338889 C93,29.4072222 74.5266145,9.68444444 50.9819277,7.44055556 Z M47.5,16 C66.8037094,16 82.762044,30.4394576 85,49 L10,49 C12.237956,30.4394576 28.1962906,16 47.5,16 Z" id="形状" fill="#1138FF" fill-rule="nonzero"></path>
                                    <path d="M52,24.104087 C56.2338713,23.6092551 60.6049704,24.8787543 65.1132975,27.9125846 C69.6216246,30.9464149 72.9579256,34.863528 75.1222005,39.6639237" id="路径-3" stroke="#1138FF" stroke-width="6" opacity="0.5" stroke-linecap="round"></path>
                                </g>
                            </g>
                        </g>
                    </g>
                </g>
            </g>
        </g>
    </g>
</svg>