<?xml version="1.0" encoding="UTF-8"?>
<svg width="85px" height="100px" viewBox="0 0 85 100" version="1.1" xmlns="http://www.w3.org/2000/svg" xmlns:xlink="http://www.w3.org/1999/xlink">
    <!-- Generator: Sketch 63.1 (92452) - https://sketch.com -->
    <title>形状</title>
    <desc>Created with Sketch.</desc>
    <g id="页面-1" stroke="none" stroke-width="1" fill="none" fill-rule="evenodd">
        <g id="1PC首页" transform="translate(-1057.000000, -1164.000000)" fill="#1138FF">
            <g id="核心实力" transform="translate(0.000000, 966.000000)">
                <g id="编组-9" transform="translate(430.000000, 60.000000)">
                    <g id="内容" transform="translate(0.000000, 138.000000)">
                        <g id="3" transform="translate(560.000000, 0.000000)">
                            <g id="秒表" transform="translate(67.000000, 0.000000)">
                                <g id="编组-8">
                                    <g>
                                        <path d="M76.3584815,32.1227053 L84.8042915,23.6949625 L76.6259493,15.5488271 L68.1801393,23.9765699 C61.8719994,19.1876961 54.3338252,16.2688933 46.43295,15.5559953 L46.43295,7.68020305 L50.2906586,7.68020305 L50.2906586,0 L34.8598243,0 L34.8598243,7.68020305 L38.7175329,7.68020305 L38.7175329,15.5559953 C19.4159597,17.2734997 3.72582618,31.7708933 0.570128283,50.8034926 C-2.58556961,69.836092 7.59241619,88.5834839 25.315854,96.384006 C43.0392919,104.184528 63.8193418,99.0625315 75.8383668,83.9309011 C87.8573917,68.7992706 88.0713163,47.4904156 76.3584815,32.1227053 M43.5148127,92 C29.5596752,92.0057851 16.9754512,83.6038132 11.6311357,70.7125691 C6.2868201,57.821325 9.23510487,42.9800505 19.1009773,33.1103772 C28.9668496,23.240704 43.8069879,20.2867023 56.7002904,25.6260512 C69.5935928,30.9654001 78,43.5463859 78,57.5015241 C77.9797347,76.5409181 62.5541983,91.9723973 43.5148127,92" id="形状" fill-rule="nonzero"></path>
                                        <path d="M41.3333333,38 C43.1742825,38 44.6666667,39.4923842 44.6666667,41.3333333 L44.666,56.333 L59.6666667,56.3333333 C61.5076158,56.3333333 63,57.8257175 63,59.6666667 C63,61.5076158 61.5076158,63 59.6666667,63 L38.3333333,63 L38.333,62.666 L38,62.6666667 L38,41.3333333 C38,39.4923842 39.4923842,38 41.3333333,38 Z" id="形状结合" opacity="0.500395275"></path>
                                    </g>
                                </g>
                            </g>
                        </g>
                    </g>
                </g>
            </g>
        </g>
    </g>
</svg>