<?xml version="1.0" encoding="UTF-8"?>
<svg width="80px" height="80px" viewBox="0 0 80 80" version="1.1" xmlns="http://www.w3.org/2000/svg" xmlns:xlink="http://www.w3.org/1999/xlink">
    <!-- Generator: Sketch 63.1 (92452) - https://sketch.com -->
    <title>图标</title>
    <desc>Created with Sketch.</desc>
    <defs>
        <polygon id="path-1" points="1.9826518e-05 0.0795202125 79.9403222 0.0795202125 79.9403222 64.8871036 1.9826518e-05 64.8871036"></polygon>
        <polygon id="path-3" points="0.0392031906 0.0596778191 34.0640677 0.0596778191 34.0640677 79.9999901 0.0392031906 79.9999901"></polygon>
    </defs>
    <g id="页面-1" stroke="none" stroke-width="1" fill="none" fill-rule="evenodd">
        <g id="8联盟计划" transform="translate(-1419.000000, -401.000000)">
            <g id="交易员" transform="translate(363.000000, 137.000000)">
                <g id="编组-5">
                    <g transform="translate(704.000000, 264.000000)">
                        <g id="编组-31" transform="translate(352.000000, 0.000000)">
                            <g id="图标">
                                <g id="编组" transform="translate(0.000000, 5.333333)">
                                    <mask id="mask-2" fill="white">
                                        <use xlink:href="#path-1"></use>
                                    </mask>
                                    <g id="Clip-2"></g>
                                    <path d="M65.3481239,3.89202299 C62.1998711,3.89202299 59.638285,6.45721996 59.638285,9.61003258 C59.638285,12.7632423 62.1998711,15.3285385 65.3481239,15.3285385 C68.4967732,15.3285385 71.0583594,12.7632423 71.0583594,9.61003258 C71.0583594,6.45721996 68.4967732,3.89202299 65.3481239,3.89202299 M65.3481239,19.1405449 C60.0979628,19.1405449 55.8313953,14.8677978 55.8313953,9.61003258 C55.8313953,4.35226731 60.0979628,0.0795202125 65.3481239,0.0795202125 C70.598285,0.0795202125 74.8648525,4.35226731 74.8648525,9.61003258 C74.8648525,14.8677978 70.598285,19.1405449 65.3481239,19.1405449 M71.6926097,64.8871036 L57.7346419,64.8871036 C56.6801685,64.8871036 55.8313953,64.0373988 55.8313953,62.9811004 C55.8313953,61.9247026 56.6801685,61.0750972 57.7346419,61.0750972 L69.9240843,61.0750972 L71.0660917,45.0554972 C71.1136753,44.3807171 71.5102057,43.78506 72.1131301,43.4829627 L76.1338488,41.4656709 L76.1338488,32.4835601 C76.1338488,29.3303504 73.5722627,26.7650541 70.4236134,26.7650541 L60.2726344,26.7650541 C58.0758563,26.7650541 56.0536506,28.0517726 55.1100074,30.0450395 C54.6576654,30.9982893 53.523886,31.4031375 52.5720149,30.9505375 C51.6202429,30.4980367 51.215881,29.3621187 51.6678265,28.4089682 C53.2380867,25.0971152 56.6167237,22.9530477 60.2726344,22.9530477 L70.4236134,22.9530477 C75.6737745,22.9530477 79.940342,27.2257948 79.940342,32.4835601 L79.940342,42.6492414 C79.940342,43.3720712 79.5360793,44.0313642 78.8858686,44.3566922 L74.7854473,46.4058517 L73.5958563,63.1160167 C73.5168476,64.1165219 72.6920644,64.8871036 71.6926097,64.8871036 M14.5922379,3.89202299 C11.4439851,3.89202299 8.88249814,6.45721996 8.88249814,9.61003258 C8.88249814,12.7632423 11.4439851,15.3285385 14.5922379,15.3285385 C17.7408872,15.3285385 20.3024734,12.7632423 20.3024734,9.61003258 C20.3024734,6.45721996 17.7408872,3.89202299 14.5922379,3.89202299 M14.5922379,19.1405449 C9.34207683,19.1405449 5.07550929,14.8677978 5.07550929,9.61003258 C5.07550929,4.35226731 9.34207683,0.0795202125 14.5922379,0.0795202125 C19.842399,0.0795202125 24.1089665,4.35226731 24.1089665,9.61003258 C24.1089665,14.8677978 19.842399,19.1405449 14.5922379,19.1405449 M22.20572,64.8871036 L8.24775217,64.8871036 C7.24869393,64.8871036 6.42391078,64.1165219 6.35223792,63.1160167 L5.1549145,46.4058517 L1.04676084,44.3489487 C0.404282528,44.0313642 1.9826518e-05,43.3720712 1.9826518e-05,42.6492414 L1.9826518e-05,32.4835601 C1.9826518e-05,27.2257948 4.26658736,22.9530477 9.51674845,22.9530477 L19.6677274,22.9530477 C23.3240347,22.9530477 26.7022751,25.0971152 28.2725353,28.4089682 C28.7248773,29.3621187 28.3202181,30.4980367 27.368347,30.9505375 C26.4168724,31.4031375 25.2826964,30.9982893 24.8307509,30.0450395 C23.8871078,28.0517726 21.8646047,26.7650541 19.6677274,26.7650541 L9.51674845,26.7650541 C6.36809913,26.7650541 3.80651301,29.3303504 3.80651301,32.4835601 L3.80651301,41.4738115 L7.82762825,43.4911033 C8.43015613,43.7929029 8.82668649,44.3885599 8.87436927,45.0636378 L10.0162776,61.0750972 L22.20572,61.0750972 C23.2605898,61.0750972 24.1089665,61.9247026 24.1089665,62.9811004 C24.1089665,64.0373988 23.2605898,64.8871036 22.20572,64.8871036" id="Fill-1" fill="#1138FF" opacity="0.498511905" mask="url(#mask-2)"></path>
                                </g>
                                <g id="编组" transform="translate(23.111111, 0.000000)">
                                    <mask id="mask-4" fill="white">
                                        <use xlink:href="#path-3"></use>
                                    </mask>
                                    <g id="Clip-4"></g>
                                    <ellipse id="椭圆形" stroke="#1138FF" stroke-width="5" mask="url(#mask-4)" cx="16.9302326" cy="12" rx="9.59302326" ry="9.5"></ellipse>
                                    <path d="M21.6666667,30.5 L12.1937984,30.5 C9.29430351,30.5 6.66930351,31.6752525 4.76917725,33.5753788 C2.86905098,35.4755051 1.69379845,38.1005051 1.69379845,41 L2.08691764,54.7918869 L6.63511342,55.7871205 C7.414694,55.9577079 8.08720246,56.3811937 8.57223797,56.9614011 C9.05727348,57.5416085 9.35483605,58.2785375 9.38452484,59.0760113 L10.0722991,77.5503906 L23.8161154,77.5503906 L24.5039124,59.0754005 C24.5335827,58.2784243 24.8308005,57.5418829 25.3153417,56.9618165 C25.7998829,56.3817502 26.4717474,55.9581588 27.250711,55.7870825 L32.1666667,54.3053323 L32.1666667,41 C32.1666667,38.1005051 30.9914141,35.4755051 29.0912879,33.5753788 C27.1911616,31.6752525 24.5661616,30.5 21.6666667,30.5 Z" id="矩形" stroke="#1138FF" stroke-width="5" mask="url(#mask-4)"></path>
                                </g>
                            </g>
                        </g>
                    </g>
                </g>
            </g>
        </g>
    </g>
</svg>