<?xml version="1.0" encoding="UTF-8"?>
<svg width="28px" height="25px" viewBox="0 0 28 25" version="1.1" xmlns="http://www.w3.org/2000/svg" xmlns:xlink="http://www.w3.org/1999/xlink">
    <!-- Generator: Sketch 63.1 (92452) - https://sketch.com -->
    <title>形状</title>
    <desc>Created with Sketch.</desc>
    <g id="页面-1" stroke="none" stroke-width="1" fill="none" fill-rule="evenodd">
        <g id="1PC首页" transform="translate(-341.000000, -5569.000000)" fill="#FFFFFF" fill-rule="nonzero">
            <g id="底部" transform="translate(0.000000, 5449.000000)">
                <g id="编组-20" transform="translate(286.000000, 70.000000)">
                    <g id="编组-19" transform="translate(0.000000, 27.000000)">
                        <g id="气泡2" transform="translate(54.000000, 23.000000)">
                            <g id="编组-38" transform="translate(1.000000, 0.000000)">
                                <path d="M9.07142857,10 L19.9285714,10 C20.5,10 21,9.53333334 21,9 C21,8.46666666 20.5,8 19.9285714,8 L9.07142857,8 C8.5,8 8,8.46666666 8,9 C8,9.53333334 8.5,10 9.07142857,10 Z M9.03448276,15 L14.9655172,15 C15.5172414,15 16,14.5333333 16,14 C16,13.4666667 15.5172414,13 14.9655172,13 L9.03448276,13 C8.48275861,13 8,13.4666667 8,14 C8,14.5333333 8.48275861,15 9.03448276,15 Z M16.6882793,0 L11.1720698,0 C5.02743145,0 0,5.02793296 0,11.2430168 C0,14.3854749 1.32668328,17.3882681 3.63092271,19.5530726 C4.04987533,19.972067 4.74812968,19.9022347 5.09725688,19.4832402 C5.5162095,19.0642458 5.44638407,18.3659218 5.02743142,18.0167598 C3.14214464,16.2709497 2.09476309,13.8268156 2.09476309,11.3128492 C2.09476309,6.2849162 6.21446385,2.16480446 11.2418953,2.16480449 L16.7581047,2.16480449 C21.7855362,2.16480449 25.9052369,6.28491623 25.9052369,11.3128492 C25.9052369,16.3407821 21.7855362,20.4608938 16.7581047,20.4608938 L9.14713218,20.4608938 C8.79800498,20.4608938 8.51870325,20.6005587 8.30922694,20.8798883 L6.42394016,23.3240223 C6.07481297,23.8128492 6.21446385,24.4413408 6.63341647,24.7905028 C6.84289278,24.9301676 7.05236909,25 7.26184539,25 C7.61097259,25 7.89027432,24.8603352 8.09975063,24.5810056 L9.70573568,22.4162011 L16.7581047,22.4162011 C22.9725686,22.4162011 28,17.3882681 28,11.1731844 C27.9301746,5.02793299 22.9027432,0 16.6882793,0 Z" id="形状"></path>
                            </g>
                        </g>
                    </g>
                </g>
            </g>
        </g>
    </g>
</svg>