<?xml version="1.0" encoding="UTF-8"?>
<svg width="18px" height="18px" viewBox="0 0 18 18" version="1.1" xmlns="http://www.w3.org/2000/svg" xmlns:xlink="http://www.w3.org/1999/xlink">
    <!-- Generator: Sketch 63.1 (92452) - https://sketch.com -->
    <title>矩形</title>
    <desc>Created with Sketch.</desc>
    <g id="页面-1" stroke="none" stroke-width="1" fill="none" fill-rule="evenodd">
        <g id="0登录页" transform="translate(-1053.000000, -559.000000)" fill-rule="nonzero">
            <g id="编组-12" transform="translate(1033.000000, 403.000000)">
                <g id="编组-11" transform="translate(0.000000, 140.000000)">
                    <g id="密码" transform="translate(20.000000, 16.000000)">
                        <rect id="矩形" fill="#000000" opacity="0" x="0" y="0" width="18" height="18"></rect>
                        <path d="M13.8111328,6.32988281 L12.7265625,6.32988281 L12.7265625,5.00449219 C12.7265625,3.97792969 12.3275391,3.01289063 11.6015625,2.28867188 C10.8755859,1.56269531 9.91054687,1.16367188 8.88574219,1.16367188 C7.8609375,1.16367188 6.89414062,1.56269531 6.16992187,2.28867188 C5.44394531,3.01464844 5.04492188,3.9796875 5.04492188,5.00449219 L5.04492188,6.32988281 L3.95859375,6.32988281 C2.97246094,6.32988281 2.16914062,7.13320313 2.16914062,8.11933594 L2.16914062,15.0908203 C2.16914062,16.0769531 2.97246094,16.8802734 3.95859375,16.8802734 L13.8146484,16.8802734 C14.8007812,16.8802734 15.6041016,16.0769531 15.6041016,15.0908203 L15.6041016,8.11933594 C15.6023437,7.13144531 14.7990234,6.32988281 13.8111328,6.32988281 Z M6.16816406,5.00449219 C6.16816406,3.50683594 7.38632813,2.28691406 8.88574219,2.28691406 C10.3851562,2.28691406 11.6015625,3.50683594 11.6015625,5.00449219 L11.6015625,6.32988281 L6.16816406,6.32988281 L6.16816406,5.00449219 Z M14.4773437,15.0908203 C14.4773437,15.4582031 14.1785156,15.7552734 13.8128906,15.7552734 L3.95683594,15.7552734 C3.58945312,15.7552734 3.29238281,15.4564453 3.29238281,15.0908203 L3.29238281,8.11933594 C3.29238281,7.75195313 3.59121094,7.45488281 3.95683594,7.45488281 L13.8128906,7.45488281 C14.1802734,7.45488281 14.4773437,7.75371094 14.4773437,8.11933594 L14.4773437,15.0908203 Z M8.88398437,9.95449219 C8.57285156,9.95449219 8.32148438,10.2058594 8.32148438,10.5169922 L8.32148438,12.6931641 C8.32148438,13.0042969 8.57285156,13.2556641 8.88398437,13.2556641 C9.19511719,13.2556641 9.44648437,13.0042969 9.44648437,12.6931641 L9.44648437,10.5169922 C9.44648437,10.2058594 9.19511719,9.95449219 8.88398437,9.95449219 Z" id="形状" fill="#CCCCCC"></path>
                    </g>
                </g>
            </g>
        </g>
    </g>
</svg>