<?xml version="1.0" encoding="UTF-8"?>
<svg width="20px" height="20px" viewBox="0 0 20 20" version="1.1" xmlns="http://www.w3.org/2000/svg" xmlns:xlink="http://www.w3.org/1999/xlink">
    <!-- Generator: Sketch 63.1 (92452) - https://sketch.com -->
    <title>矩形</title>
    <desc>Created with Sketch.</desc>
    <defs>
        <filter x="0.0%" y="0.0%" width="100.0%" height="100.0%" filterUnits="objectBoundingBox" id="filter-1">
            <feGaussianBlur stdDeviation="10" in="SourceGraphic"></feGaussianBlur>
        </filter>
    </defs>
    <g id="页面-1" stroke="none" stroke-width="1" fill="none" fill-rule="evenodd">
        <g id="0登录页" transform="translate(-1053.000000, -488.000000)" fill-rule="nonzero">
            <g id="编组-12" transform="translate(1033.000000, 403.000000)">
                <g id="编组-7" transform="translate(0.000000, 70.000000)">
                    <g id="用户" transform="translate(20.000000, 15.000000)">
                        <rect id="矩形" fill="#000000" opacity="0" filter="url(#filter-1)" x="0" y="0" width="20" height="20"></rect>
                        <path d="M9.99832018,18.3907274 C5.00587939,18.3907274 2.47270283,17.2686041 2.47270283,15.0545943 C2.47270283,13.4755585 5.08315135,12.4374265 7.68016125,12.0880228 L7.68016127,11.7587771 C6.11792375,10.6668906 5.35864271,8.76196875 5.35864271,5.95330086 C5.35864271,3.23198387 7.06198557,1.60591299 9.91768857,1.60591299 L10.0722325,1.60591299 C12.9279355,1.60591299 14.6312784,3.23198387 14.6312784,5.95330086 C14.6312784,7.0115908 14.6312784,10.1461448 12.3299177,11.7621367 L12.3231984,12.0880229 C14.9202083,12.4407862 17.5205812,13.4755586 17.5205812,15.0512347 C17.5239375,17.2686041 14.990761,18.3907274 9.99832018,18.3907274 Z M9.9210482,2.76499244 C8.36888963,2.76499244 6.51772215,3.31933479 6.51772215,5.95330086 C6.51772215,8.4864774 7.18629262,10.1226272 8.56038971,10.9491013 C8.73509154,11.0532504 8.8392407,11.2413909 8.8392407,11.4429699 L8.8392407,12.6020494 C8.8392407,12.9010583 8.61414412,13.1496724 8.31849486,13.1765496 C5.49974801,13.4587603 3.63178229,14.4935327 3.63178229,15.0512347 C3.63178229,16.8520074 7.09558205,17.2316479 9.99832016,17.2316479 C12.9044179,17.2316479 16.364858,16.8553671 16.364858,15.0512347 C16.364858,14.490173 14.4968923,13.4587603 11.6781454,13.1765496 C11.3757769,13.1463128 11.1506803,12.8909793 11.1573996,12.5886108 L11.1842768,11.4295313 C11.1876365,11.2313119 11.2951453,11.0498908 11.4631278,10.9457416 C12.8405846,10.1159079 13.4789182,8.53015287 13.4789182,5.94994121 C13.4789182,3.31261549 11.6277507,2.76163279 10.0755921,2.76163279 L9.9210482,2.76499244 L9.9210482,2.76499244 Z" id="形状" fill="#CCCCCC"></path>
                    </g>
                </g>
            </g>
        </g>
    </g>
</svg>