<?xml version="1.0" encoding="UTF-8"?>
<svg width="108px" height="108px" viewBox="0 0 108 108" version="1.1" xmlns="http://www.w3.org/2000/svg" xmlns:xlink="http://www.w3.org/1999/xlink">
    <!-- Generator: Sketch 63.1 (92452) - https://sketch.com -->
    <title>广播公告</title>
    <desc>Created with Sketch.</desc>
    <g id="页面-1" stroke="none" stroke-width="1" fill="none" fill-rule="evenodd">
        <g id="8联盟计划" transform="translate(-910.000000, -2198.000000)">
            <g id="核心实力" transform="translate(363.000000, 1607.000000)">
                <g id="编组-9" transform="translate(156.000000, 460.000000)">
                    <g id="内容" transform="translate(0.000000, 131.000000)">
                        <g id="2" transform="translate(344.000000, 0.000000)">
                            <g id="编组-35" transform="translate(47.000000, 0.000000)">
                                <g id="广播公告" transform="translate(0.000000, 6.000000)">
                                    <rect id="矩形" fill="#000000" fill-rule="nonzero" opacity="0" x="0" y="0" width="85" height="85"></rect>
                                    <path d="M66.5357142,10 C65.1735803,10 64.0714285,11.3636023 64.0714285,13.0454546 L64.0714285,16.7124864 L4.80585,33.6156727 C4.531575,32.3055182 3.61227324,31.3181818 2.46428574,31.3181818 C1.10215182,31.3181818 0,32.6817841 0,34.3636364 L0,37.409091 L0,49.5909091 L0,52.6363637 C0,54.3197387 1.10215176,55.6818183 2.46428574,55.6818183 C3.61215,55.6818183 4.53145182,54.6944819 4.80585,53.3858501 L18.1957928,57.2045454 L17.3751857,61.6061409 C16.7687249,64.8775682 18.4268196,68.1491478 21.0691499,68.9015273 L40.2804749,74.3678136 C40.6462981,74.4719682 41.0217321,74.5254159 41.3947016,74.5254159 C43.7049695,74.5254159 45.6759052,72.5804363 46.1909409,69.7996318 L47.0067427,65.4187454 L64.0714285,70.2875136 L64.0714285,73.9545454 C64.0714285,75.6379204 65.1735803,77 66.5357143,77 C67.8978482,77 69,75.6379205 69,73.9545454 L69,67.8636363 L69,19.1363637 L69,13.0454546 C69,11.3636023 67.8978482,10 66.5357142,10 Z M5,39.3848832 L10,38 L10,48 L5,46.6166174 L5,39.3848832 Z M41.1829653,69 L22,63.4571914 L22.8171577,59 L42,64.5550066 L41.1829653,69 Z M15,49.9511913 C15.0119904,49.8235067 15.0597072,49.7107186 15.0597072,49.5801458 L15.0597072,37.4197021 C15.0597072,37.2876092 15.0118681,37.1761892 15,37.0486565 L64,23 L64,64 L15,49.9511913 Z" id="形状" fill="#1138FF" fill-rule="nonzero"></path>
                                    <path d="M78,23 C82.8385417,27.9754939 85.2578125,35.1541462 85.2578125,44.5359568 C85.2578125,53.9177674 83.061849,61.4177674 78.6699219,67.0359568" id="路径-3" stroke="#889BFF" stroke-width="5" stroke-linecap="round"></path>
                                    <path d="M92,25 C96.8385417,29.5194829 99.2578125,36.0402017 99.2578125,44.5621564 C99.2578125,53.084111 97.061849,59.8967255 92.6699219,65" id="路径-3备份" stroke="#889BFF" stroke-width="5" stroke-linecap="round"></path>
                                </g>
                            </g>
                        </g>
                    </g>
                </g>
            </g>
        </g>
    </g>
</svg>