<?xml version="1.0" encoding="UTF-8"?>
<svg width="108px" height="108px" viewBox="0 0 108 108" version="1.1" xmlns="http://www.w3.org/2000/svg" xmlns:xlink="http://www.w3.org/1999/xlink">
    <!-- Generator: Sketch 63.1 (92452) - https://sketch.com -->
    <title>矩形</title>
    <desc>Created with Sketch.</desc>
    <g id="页面-1" stroke="none" stroke-width="1" fill="none" fill-rule="evenodd">
        <g id="8联盟计划" transform="translate(-559.000000, -2198.000000)" fill-rule="nonzero">
            <g id="核心实力" transform="translate(363.000000, 1607.000000)">
                <g id="编组-9" transform="translate(156.000000, 460.000000)">
                    <g id="内容" transform="translate(0.000000, 131.000000)">
                        <g id="1">
                            <g id="握手" transform="translate(40.000000, 0.000000)">
                                <rect id="矩形" fill="#000000" opacity="0" x="0" y="0" width="108" height="108"></rect>
                                <path d="M84.3537036,63 C83.6431993,63 82.932695,62.7314204 82.3861533,62.1942611 C81.8614626,61.682891 81.5663227,60.9867304 81.5663227,60.2604876 C81.5663227,59.5342447 81.8614626,58.8380842 82.3861533,58.3267141 L92.3332131,48.5504149 C94.5740343,46.3480618 92.8251007,43.6622653 90.9122046,41.7822078 L70.416889,21.6387342 C68.7772637,20.0272563 67.629526,19.5975289 66.9736759,19.490097 C66.4817884,19.4363811 65.7712841,19.4363811 64.7875089,20.4032678 L44.9480434,39.9021503 C47.8447147,41.7284919 51.1239652,41.9433556 53.2008238,40.1707299 C56.7533452,37.1089219 61.8361835,31.683613 61.8908377,31.6298971 C62.929267,30.5018626 64.6782006,30.4481467 65.8259383,31.4687493 C66.9736759,32.489352 67.0283301,34.2082617 65.9899008,35.3362963 C65.7712841,35.55116 60.6337916,41.0301848 56.8626536,44.3068565 C51.9437778,48.5504149 44.1828849,47.5298123 38.7721216,41.9433556 C37.7336923,40.869037 37.7336923,39.1501273 38.8267758,38.1295246 L60.7977542,16.5357209 C64.6235464,12.7756058 69.7063847,13.2053333 74.3519896,17.7711873 L94.8473052,37.9146609 C99.8208351,42.8028105 100.367377,48.3892671 96.2683137,52.4179619 L86.3212539,62.1942611 C85.7747121,62.7314204 85.0642079,63 84.3537036,63 Z" id="路径" fill="#889BFF"></path>
                                <path d="M54.7015895,93 C54.3221675,93 53.8885423,93 53.5091203,92.9464139 C51.1241819,92.6248976 48.8476498,91.4995906 47.058946,89.7312508 L24.9982658,67.8681417 C21.312452,64.2242902 19.5779513,61.3306434 18.0060601,58.812099 C17.0846066,57.3116896 16.2173563,55.8648662 15.0248871,54.3644567 C14.6996682,53.9357683 14.3202462,53.5070799 13.9408242,53.0783915 C11.6642921,50.3455028 10.2550103,48.5771631 10.146604,46.7552374 C10.146604,46.6480653 10.146604,46.5408932 10.0924009,46.4337211 C9.92979143,44.8261395 9.55036941,41.4502182 13.4529959,37.5920225 L31.0690181,20.1765557 C35.0258477,16.2647739 46.2499811,20.5704231 49.6105761,23.4640699 C50.7488421,24.4286188 50.9114516,26.1969585 49.8815918,27.3222656 C48.9059352,28.4475727 47.1172314,28.6083309 45.9789653,27.5901959 C43.1604018,25.1788236 34.7710668,24.0251972 33.7954102,24.9897461 L17.3556223,41.4502182 C15.2959028,43.4864882 15.4585123,44.6653813 15.5669185,45.8442745 C15.5669185,45.9514466 15.5669185,46.0050326 15.6211217,46.1122047 C15.8921374,46.8088234 17.4098255,48.5771631 18.2228727,49.5417121 C18.6022947,50.0239865 19.0359199,50.506261 19.3611387,50.9349494 C20.8246237,52.7568752 21.8002803,54.3644567 22.7759369,55.9720383 C24.293625,58.4905827 25.7029067,60.848369 28.9008923,64.009946 L50.9615725,85.8194691 C51.883026,86.7304319 53.0754952,87.3198785 54.2137612,87.4806367 C55.0268084,87.5878088 55.7314493,87.4270506 56.1108713,87.1055343 C57.1949342,86.0338133 62.723655,81.2110686 70.4205017,74.5128122 C74.7567533,70.7617885 79.6350364,66.5284904 80.1228647,65.9926299 C80.1770679,65.9390439 82.9956314,62.3487784 80.3938805,59.7766479 L62.4462505,42.7417406 C61.3621876,41.6700196 61.3621876,39.955266 62.4462505,38.8835449 C63.5303134,37.8118239 65.264814,37.8118239 66.348877,38.8835449 L84.2965069,55.9184522 C86.573039,58.1690664 87.4402894,61.1698853 86.7898516,64.3314623 C86.3020233,66.6892486 85.055351,68.8326907 84.0254912,69.8508257 C83.4292566,70.4402722 80.0144584,73.3875051 74.0521124,78.5853521 C68.2523759,83.6224409 61.0433575,89.892009 60.0134978,90.910144 C58.7126223,92.2497953 56.8155122,93 54.7015895,93 Z" id="路径" fill="#1138FF"></path>
                                <path d="M77.3206365,72.9457505 C76.6376659,72.9457505 75.9546953,72.6835443 75.4293333,72.159132 L65.8152086,62.562387 C64.7644846,61.5135624 64.7644846,59.835443 65.8152086,58.7866184 C66.8659326,57.7377939 68.547091,57.7377939 69.597815,58.7866184 L79.2119397,68.3833635 C79.7162975,68.8825985 80,69.5622389 80,70.2712477 C80,70.9802566 79.7162975,71.6598969 79.2119397,72.159132 C78.7391139,72.6835443 78.0561433,72.9457505 77.3206365,72.9457505 Z M70.5960028,79.7106691 C69.9130322,79.7106691 69.2300616,79.4484629 68.7046996,78.9240506 L59.0905749,69.3273056 C58.0398509,68.278481 58.0398509,66.6003617 59.0905749,65.5515371 C60.1412989,64.5027125 61.8224573,64.5027125 62.8731813,65.5515371 L72.4873061,75.1482821 C72.9916638,75.6475172 73.2753663,76.3271575 73.2753663,77.0361664 C73.2753663,77.7451752 72.9916638,78.4248156 72.4873061,78.9240506 C71.9619441,79.4484629 71.2789734,79.7106691 70.5960028,79.7106691 Z M63.293471,87 C62.6105003,87 61.9275297,86.7377939 61.4021677,86.2133816 L51.788043,76.6166365 C50.737319,75.5678119 50.737319,73.8896926 51.788043,72.840868 C52.838767,71.7920434 54.5199254,71.7920434 55.5706495,72.840868 L65.1847742,82.437613 C65.6891319,82.9368481 65.9728344,83.6164885 65.9728344,84.3254973 C65.9728344,85.0345061 65.6891319,85.7141465 65.1847742,86.2133816 C64.6594122,86.7377939 63.9764416,87 63.293471,87 L63.293471,87 Z" id="形状" fill="#1138FF"></path>
                            </g>
                        </g>
                    </g>
                </g>
            </g>
        </g>
    </g>
</svg>