<?xml version="1.0" standalone="no"?><!DOCTYPE svg PUBLIC "-//W3C//DTD SVG 1.1//EN" "http://www.w3.org/Graphics/SVG/1.1/DTD/svg11.dtd"><svg t="1585908774565" class="icon" viewBox="0 0 1024 1024" version="1.1" xmlns="http://www.w3.org/2000/svg" p-id="846" xmlns:xlink="http://www.w3.org/1999/xlink" width="64" height="64"><defs><style type="text/css"></style></defs><path d="M835.5 67.5H342.3c-106.3 0-193.2 87-193.2 193.2v619.7c0 42.1 34.5 76.6 76.6 76.6h460c106.3 0 193.2-87 193.2-193.2V110.9c0-23.9-19.5-43.4-43.4-43.4zM662.8 719.6H365.2c-24.4 0-44.4-20-44.4-44.4s20-44.4 44.4-44.4h297.6c24.4 0 44.4 20 44.4 44.4s-20 44.4-44.4 44.4z m0-196.8H365.2c-24.4 0-44.4-20-44.4-44.4s20-44.4 44.4-44.4h297.6c24.4 0 44.4 20 44.4 44.4s-20 44.4-44.4 44.4z m0-197.7H365.2c-24.4 0-44.4-20-44.4-44.4s20-44.4 44.4-44.4h297.6c24.4 0 44.4 20 44.4 44.4s-20 44.4-44.4 44.4z" fill="#1296db" p-id="847"></path></svg>