<?xml version="1.0" encoding="UTF-8"?>
<svg width="100px" height="100px" viewBox="0 0 100 100" version="1.1" xmlns="http://www.w3.org/2000/svg" xmlns:xlink="http://www.w3.org/1999/xlink">
    <!-- Generator: Sketch 63.1 (92452) - https://sketch.com -->
    <title>图标</title>
    <desc>Created with Sketch.</desc>
    <defs>
        <polygon id="path-1" points="2.47831475e-05 0.0992641009 99.9254027 0.0992641009 99.9254027 80.9977714 2.47831475e-05 80.9977714"></polygon>
        <polygon id="path-3" points="0.0486270345 0.0745972739 42.2525456 0.0745972739 42.2525456 99.9999876 0.0486270345 99.9999876"></polygon>
    </defs>
    <g id="页面-1" stroke="none" stroke-width="1" fill="none" fill-rule="evenodd">
        <g id="9关于我们" transform="translate(-560.000000, -902.000000)">
            <g id="核心实力" transform="translate(365.000000, 704.000000)">
                <g id="编组-9" transform="translate(184.000000, 60.000000)">
                    <g id="内容" transform="translate(0.000000, 138.000000)">
                        <g id="1">
                            <g id="编组" transform="translate(11.000000, 0.000000)">
                                <g id="图标">
                                    <g id="编组" transform="translate(0.000000, 7.000000)">
                                        <mask id="mask-2" fill="white">
                                            <use xlink:href="#path-1"></use>
                                        </mask>
                                        <g id="Clip-2"></g>
                                        <path d="M81.6851549,4.85836431 C77.7498389,4.85836431 74.5478563,8.06046806 74.5478563,11.9960852 C74.5478563,15.932198 77.7498389,19.1344257 81.6851549,19.1344257 C85.6209665,19.1344257 88.8229492,15.932198 88.8229492,11.9960852 C88.8229492,8.06046806 85.6209665,4.85836431 81.6851549,4.85836431 M81.6851549,23.8929063 C75.1224535,23.8929063 69.7892441,18.5592887 69.7892441,11.9960852 C69.7892441,5.43288163 75.1224535,0.0992641009 81.6851549,0.0992641009 C88.2478563,0.0992641009 93.5810657,5.43288163 93.5810657,11.9960852 C93.5810657,18.5592887 88.2478563,23.8929063 81.6851549,23.8929063 M89.6157621,80.9977714 L72.1683024,80.9977714 C70.8502107,80.9977714 69.7892441,79.9370955 69.7892441,78.6185311 C69.7892441,77.2998429 70.8502107,76.2392908 72.1683024,76.2392908 L87.4051053,76.2392908 L88.8326146,56.2422217 C88.8920942,55.399902 89.3877571,54.6563506 90.1414126,54.2792462 L95.167311,51.7610857 L95.167311,40.5488276 C95.167311,36.6127147 91.9653284,33.4104871 88.0295167,33.4104871 L75.3407931,33.4104871 C72.5948203,33.4104871 70.0670632,35.0166818 68.8875093,37.5048524 C68.3220818,38.6947824 66.9048575,39.2001494 65.7150186,38.6351743 C64.5253036,38.0703232 64.0198513,36.6523708 64.5847831,35.4625648 C66.5476084,31.3284194 70.7709046,28.6520065 75.3407931,28.6520065 L88.0295167,28.6520065 C94.5922181,28.6520065 99.9254275,33.985624 99.9254275,40.5488276 L99.9254275,53.2385222 C99.9254275,54.1408217 99.4200991,54.9638091 98.6073358,55.3699121 L93.4818092,57.9278525 L91.9948203,78.7869455 C91.8960595,80.0358639 90.8650805,80.9977714 89.6157621,80.9977714 M18.2402974,4.85836431 C14.3049814,4.85836431 11.1031227,8.06046806 11.1031227,11.9960852 C11.1031227,15.932198 14.3049814,19.1344257 18.2402974,19.1344257 C22.176109,19.1344257 25.3780917,15.932198 25.3780917,11.9960852 C25.3780917,8.06046806 22.176109,4.85836431 18.2402974,4.85836431 M18.2402974,23.8929063 C11.677596,23.8929063 6.34438662,18.5592887 6.34438662,11.9960852 C6.34438662,5.43288163 11.677596,0.0992641009 18.2402974,0.0992641009 C24.8029988,0.0992641009 30.1362082,5.43288163 30.1362082,11.9960852 C30.1362082,18.5592887 24.8029988,23.8929063 18.2402974,23.8929063 M27.7571499,80.9977714 L10.3096902,80.9977714 C9.06086741,80.9977714 8.02988848,80.0358639 7.9402974,78.7869455 L6.44364312,57.9278525 L1.30845105,55.3602459 C0.50535316,54.9638091 2.47831475e-05,54.1408217 2.47831475e-05,53.2385222 L2.47831475e-05,40.5488276 C2.47831475e-05,33.985624 5.3332342,28.6520065 11.8959356,28.6520065 L24.5846592,28.6520065 C29.1550434,28.6520065 33.3778439,31.3284194 35.3406691,35.4625648 C35.9060967,36.6523708 35.4002726,38.0703232 34.2104337,38.6351743 C33.0210905,39.2001494 31.6033705,38.6947824 31.0384387,37.5048524 C29.8588848,35.0166818 27.3307559,33.4104871 24.5846592,33.4104871 L11.8959356,33.4104871 C7.96012392,33.4104871 4.75814126,36.6127147 4.75814126,40.5488276 L4.75814126,51.7712476 L9.78453532,54.2894081 C10.5376952,54.6661407 11.0333581,55.4096921 11.0929616,56.2523835 L12.520347,76.2392908 L27.7571499,76.2392908 C29.0757373,76.2392908 30.1362082,77.2998429 30.1362082,78.6185311 C30.1362082,79.9370955 29.0757373,80.9977714 27.7571499,80.9977714" id="Fill-1" fill="#1138FF" opacity="0.498511905" mask="url(#mask-2)"></path>
                                    </g>
                                    <g id="编组" transform="translate(29.000000, 0.000000)">
                                        <mask id="mask-4" fill="white">
                                            <use xlink:href="#path-3"></use>
                                        </mask>
                                        <g id="Clip-4"></g>
                                        <circle id="椭圆形" stroke="#1138FF" stroke-width="7" mask="url(#mask-4)" cx="21" cy="15" r="11.5"></circle>
                                        <path d="M30,38.5 L12,38.5 C9.37664744,38.5 7.00164744,39.5633237 5.28248558,41.2824856 C3.56332372,43.0016474 2.5,45.3766474 2.5,48 L2.5,68.0851785 L8.50413838,69.4091854 C9.50501031,69.6298934 10.3680651,70.1748581 10.9903611,70.9207007 C11.6126572,71.6665433 11.9941944,72.6132637 12.0320313,73.6374829 L12.8789492,96.5629883 L29.1557187,96.5629883 L30.0026593,73.6368685 C30.0404724,72.6132933 30.421564,71.6670752 31.0432204,70.9214161 C31.6648769,70.175757 32.5270981,69.6306569 33.5271706,69.409318 L39.5,68.0873941 L39.5,48 C39.5,45.3766474 38.4366763,43.0016474 36.7175144,41.2824856 C34.9983526,39.5633237 32.6233526,38.5 30,38.5 Z" id="矩形" stroke="#1138FF" stroke-width="7" mask="url(#mask-4)"></path>
                                    </g>
                                </g>
                            </g>
                        </g>
                    </g>
                </g>
            </g>
        </g>
    </g>
</svg>