<?xml version="1.0" standalone="no"?><!DOCTYPE svg PUBLIC "-//W3C//DTD SVG 1.1//EN" "http://www.w3.org/Graphics/SVG/1.1/DTD/svg11.dtd"><svg t="1585908385744" class="icon" viewBox="0 0 1024 1024" version="1.1" xmlns="http://www.w3.org/2000/svg" p-id="1184" width="64" height="64" xmlns:xlink="http://www.w3.org/1999/xlink"><defs><style type="text/css"></style></defs><path d="M563.2 614.4c195.2768 0 354.048 156.16 358.3232 350.3872L921.6 972.8H102.4c0-197.9392 160.4608-358.4 358.4-358.4h102.4z m-51.2-332.8a51.2 51.2 0 1 1 0 102.4 51.2 51.2 0 0 1 0-102.4z" fill="#1296db" p-id="1185"></path><path d="M793.6 51.2v281.6c0 155.52-126.08 281.6-281.6 281.6S230.4 488.32 230.4 332.8 356.48 51.2 512 51.2h281.6zM510.208 230.4A204.6464 204.6464 0 0 0 332.8 332.8256 204.7232 204.7232 0 0 0 510.208 435.2a204.6464 204.6464 0 0 0 177.3568-102.4256A204.7232 204.7232 0 0 0 510.208 230.4z" fill="#1296db" p-id="1186"></path></svg>