<?xml version="1.0" standalone="no"?><!DOCTYPE svg PUBLIC "-//W3C//DTD SVG 1.1//EN" "http://www.w3.org/Graphics/SVG/1.1/DTD/svg11.dtd"><svg t="1585903179691" class="icon" viewBox="0 0 1246 1024" version="1.1" xmlns="http://www.w3.org/2000/svg" p-id="799" xmlns:xlink="http://www.w3.org/1999/xlink" width="243.359375" height="200"><defs><style type="text/css"></style></defs><path d="M152.716846 629.849295a53.406758 53.406758 0 0 0 51.199868-68.854994l245.84764-247.613153a53.406758 53.406758 0 0 0 16.77237 2.648269 52.96538 52.96538 0 0 0 33.986119-12.358589 33.103363 33.103363 0 0 0 7.503429 6.179295l209.213252 104.165248a24.717177 24.717177 0 0 0 9.268942 2.648269 53.848137 53.848137 0 0 0 15.889614 40.606791 51.641246 51.641246 0 0 0 37.517144 15.448236 52.524002 52.524002 0 0 0 37.958523-15.448236 53.848137 53.848137 0 0 0 13.241345-53.848136l249.820044-297.930264a63.117078 63.117078 0 0 0 12.799966 0 51.641246 51.641246 0 0 0 37.517145-15.448236 52.96538 52.96538 0 0 0 16.330992-36.634388 52.082624 52.082624 0 0 0-15.889614-37.517145 52.082624 52.082624 0 0 0-37.958523-15.889614 54.730893 54.730893 0 0 0-37.958522 15.448236 53.406758 53.406758 0 0 0-10.593076 60.027431L798.894486 369.436176a55.613649 55.613649 0 0 0-18.979262-3.531026 54.730893 54.730893 0 0 0-34.427497 12.358589 24.275799 24.275799 0 0 0-7.503429-5.737916L529.653803 267.919197a24.275799 24.275799 0 0 0-10.151698-3.089647 53.406758 53.406758 0 0 0-15.448236-40.606792 53.848137 53.848137 0 0 0-75.475667 0 53.848137 53.848137 0 0 0-12.358589 56.055027l-243.640749 246.289019a52.96538 52.96538 0 0 0-19.862018-3.972404 53.848137 53.848137 0 0 0 0 107.254895z" fill="#FFE183" p-id="800"></path><path d="M1224.38304 971.03462h-49.875733V264.82955a2.648269 2.648269 0 0 0-2.206891-2.648269H1015.169788A2.648269 2.648269 0 0 0 1015.169788 264.82955v706.20507h-154.040981v-342.509459a2.648269 2.648269 0 0 0-2.648269-2.648269H701.791288a2.648269 2.648269 0 0 0-2.648269 2.648269V971.03462H547.308929V471.835911a2.648269 2.648269 0 0 0-2.20689-2.648269H387.97141a2.648269 2.648269 0 0 0 0 2.648269V971.03462h-154.482359v-185.820209-2.206891h-158.89614s-2.648269 0-2.648269 2.206891V971.03462H22.068908c-12.358589 0-22.068908 17.213749-22.068908 29.572337a22.068908 22.068908 0 0 0 22.068908 22.068908h1202.314132a22.068908 22.068908 0 0 0 22.068909-22.068908c0-12.358589-9.71032-29.572337-22.068909-29.572337z" fill="#FFE183" p-id="801"></path></svg>